# xmcd
#
# Track frame offsets:
#        150
#        11995
#        22848
#        34237
#        44282
#        57716
#        70655
#        82451
#        94917
#        105392
#        115675
#        126728
#        138819
#        150668
#        162603
#        175634
#        187640
#        199676
#        210017
#        223629
#        234944
#        245559
#        258519
#        269744
#        281525
#        291879
#        304801
#        318163
#        329896
#
# Disc length: 4580 seconds
#
# Revision: 4
# Processed by: cddbd v1.5.2PL0 Copyright (c) Steve Scherf et al.
# Submitted via: jack 3.1.1
#
DISCID=ad11e21d
DTITLE=Peter Green Splinter Group - Me and the Devil - The Robert Johnson Songbook 
DTITLE=(CD 3 of 3)
DYEAR=2005
DGENRE=Blues
TTITLE0=I'm A Steady Rollin' Man
TTITLE1=From Four Until Late
TTITLE2=Dead Shrimp Blues
TTITLE3=Little Queen Of Spades
TTITLE4=They're Red Hot
TTITLE5=Preachin' Blues
TTITLE6=Hell Hound On My Trail
TTITLE7=Traveling Riverside Blues
TTITLE8=Malted Milk
TTITLE9=Milkcow's Calf Blues
TTITLE10=Drunken Hearted Man
TTITLE11=Cross Road Blues
TTITLE12=Come On In My Kitchen
TTITLE13=When You Got A Good Friend
TTITLE14=32-20 Blues
TTITLE15=Phonograph Blues
TTITLE16=Last Fair Deal Gone Down
TTITLE17=Stop Breakin' Down Blues
TTITLE18=Terraplane Blues
TTITLE19=Walkin' Blues
TTITLE20=Love In Vain Blues
TTITLE21=Ramblin' On My Mind
TTITLE22=Stones In My Passway
TTITLE23=Me And The Devil Blues
TTITLE24=Honeymoon Blues
TTITLE25=Kind Hearted Woman Blues
TTITLE26=I Believe I'll Dust My Broom
TTITLE27=If I Had Possession Over Judgement Day
TTITLE28=Sweet Home Chicago
EXTD=
EXTT0=
EXTT1=
EXTT2=
EXTT3=
EXTT4=
EXTT5=
EXTT6=
EXTT7=
EXTT8=
EXTT9=
EXTT10=
EXTT11=
EXTT12=
EXTT13=
EXTT14=
EXTT15=
EXTT16=
EXTT17=
EXTT18=
EXTT19=
EXTT20=
EXTT21=
EXTT22=
EXTT23=
EXTT24=
EXTT25=
EXTT26=
EXTT27=
EXTT28=
PLAYORDER=
